<svg xmlns="http://www.w3.org/2000/svg" viewBox="0 0 379.09 410.93"><defs><style>.cls-1{fill:#fdb826;}</style></defs><title>Asset 3</title><g id="Layer_2" data-name="Layer 2"><g id="Layer_1-2" data-name="Layer 1"><path class="cls-1" d="M377,227.36c-4,10.31-13.29,18.78-22.27,27a671.12,671.12,0,0,1-57.79,47.06c-66.11,48-141.36,84.47-220.25,105.8C62.57,411,46.23,414,34.45,405.34c-9.21-6.73-12.77-18.62-15.47-29.7C7.64,329.09,3.23,281.07.17,233.36c-.3-4.63-.49-9.62,2-13.54,2-3.19,5.44-5.14,8.74-7,28.38-15.68,58.28-30.08,83.93-50.11,7.73-6,16-13.82,15.49-23.61-.34-7.12-5.29-13.06-10-18.37C79.55,97.6,47,68.24,24.26,47.08c42.62,20.18,92.38,55.09,125.44,88.73,5,5,10,10.77,10.77,17.81,1,9.71-6.52,18-13.71,24.61a403.08,403.08,0,0,1-36.18,29.53c-2.48,1.8-5.09,3.7-6.33,6.5-1.14,2.59-.93,5.54-.68,8.36q2.26,25.23,6.56,50.23c30.8-17.53,59.35-38.74,87-60.86,13-10.37,27-23.43,26.34-40-.44-12-8.57-22.15-16.54-31.12A676.66,676.66,0,0,0,31.88,0,663.81,663.81,0,0,1,358.59,179.61c7.05,7.11,14.1,14.61,17.83,23.9C380.08,212.61,379.71,220.4,377,227.36Z"/></g></g></svg>